<?xml version="1.0" encoding="utf-8"?>
<!-- Generator: Adobe Illustrator 25.2.1, SVG Export Plug-In . SVG Version: 6.00 Build 0)  -->
<svg version="1.1" id="Layer_1" focusable="false" xmlns="http://www.w3.org/2000/svg" xmlns:xlink="http://www.w3.org/1999/xlink"
	 x="0px" y="0px" viewBox="0 0 512 512" style="enable-background:new 0 0 512 512;" xml:space="preserve">
<style type="text/css">
	.st0{fill:#F38E20;}
</style>
<path class="st0" d="M451.8,45.1h-113L330,27.5c-3.8-7.7-11.7-12.5-20.2-12.5H202.2c-8.6,0-16.4,4.8-20.1,12.5l-8.8,17.6h-113
	c-8.3,0-15.1,6.7-15.1,15.1v30.1c0,8.3,6.7,15.1,15.1,15.1h391.6c8.3,0,15.1-6.7,15.1-15.1V60.2C466.9,51.9,460.1,45.1,451.8,45.1z
	 M95.2,454.6c1.5,23.8,21.2,42.4,45.1,42.4h231.4c23.9,0,43.6-18.6,45.1-42.4l20-319.1H75.3L95.2,454.6z"/>
</svg>
