<?xml version="1.0" encoding="utf-8"?>
<!-- Generator: Adobe Illustrator 25.1.0, SVG Export Plug-In . SVG Version: 6.00 Build 0)  -->
<svg version="1.1" id="Layer_1" focusable="false" xmlns="http://www.w3.org/2000/svg" xmlns:xlink="http://www.w3.org/1999/xlink"
	 x="0px" y="0px" viewBox="0 0 512 512" style="enable-background:new 0 0 512 512;" xml:space="preserve">
<style type="text/css">
	.st0{fill:#3B2748;}
</style>
<path id="columns-solid" class="st0" d="M455.2,42.3H56.8c-25.4,0-46,20.6-46,46c0,0,0,0,0,0v337.1c0,25.4,20.6,46,45.9,46
	c0,0,0,0,0,0h398.4c25.4,0,46-20.6,46-46c0,0,0,0,0,0V88.2C501.1,62.9,480.6,42.3,455.2,42.3C455.2,42.3,455.2,42.3,455.2,42.3z
	 M225.4,410H72.1V164.8h153.2V410z M439.9,410H286.6V164.8h153.2V410z"/>
</svg>
