<?xml version="1.0" encoding="utf-8"?>
<!-- Generator: Adobe Illustrator 24.3.0, SVG Export Plug-In . SVG Version: 6.00 Build 0)  -->
<svg version="1.1" id="Layer_1" xmlns="http://www.w3.org/2000/svg" xmlns:xlink="http://www.w3.org/1999/xlink" x="0px" y="0px"
	 width="802.8px" height="330.1px" viewBox="0 0 802.8 330.1" style="enable-background:new 0 0 802.8 330.1;" xml:space="preserve"
	>
<style type="text/css">
	.st0{fill:#FFFFFF; stroke="none"}
</style>
<g>
	<path class="st0" d="M240,68.7c-5.9-5.9-15.5-5.9-21.4,0l-21.4,21.4c-5.9,5.9-5.9,15.5,0,21.4l42.8,42.8c5.9,5.9,5.9,15.5,0,21.4
		l-42.8,42.8c-5.9,5.9-5.9,15.5,0,21.4l21.4,21.4c5.9,5.9,15.5,5.9,21.4,0l85.7-85.7c5.9-5.9,5.9-15.5,0-21.4L240,68.7z"/>
	<g>
		<path class="st0" d="M175.8,261.4c-5.9-5.9-15.5-5.9-21.4,0l-21.4,21.4c-5.9,5.9-5.9,15.5,0,21.4l21.4,21.4
			c5.9,5.9,15.5,5.9,21.4,0l21.4-21.4c5.9-5.9,5.9-15.5,0-21.4L175.8,261.4z"/>
		<path class="st0" d="M175.9,132.8c-5.9-5.9-15.5-5.9-21.4,0l-85.8,85.8c-5.9,5.9-5.9,15.5,0,21.4l21.4,21.4
			c5.9,5.9,15.5,5.9,21.4,0l85.8-85.8c5.9-5.9,5.9-15.5,0-21.4L175.9,132.8z"/>
		<path class="st0" d="M175.8,4.4c-5.9-5.9-15.5-5.9-21.4,0L4.4,154.3c-5.9,5.9-5.9,15.5,0,21.4l21.4,21.4c5.9,5.9,15.5,5.9,21.4,0
			L197.2,47.3c5.9-5.9,5.9-15.5,0-21.4L175.8,4.4z"/>
	</g>
	<g>
		<defs>
			<path id="SVGID_1_" d="M197.2,282.8c5.9,5.9,5.9,15.5,0,21.4l-21.4,21.4c-5.9,5.9-15.5,5.9-21.4,0l-21.4-21.4
				c-5.9-5.9-5.9-15.5,0-21.4l21.4-21.4c5.9-5.9,15.5-5.9,21.4,0L197.2,282.8z M175.9,132.8c-5.9-5.9-15.5-5.9-21.4,0l-85.8,85.8
				c-5.9,5.9-5.9,15.5,0,21.4l21.4,21.4c5.9,5.9,15.5,5.9,21.4,0l85.8-85.8c5.9-5.9,5.9-15.5,0-21.4L175.9,132.8z M175.8,4.4
				c-5.9-5.9-15.5-5.9-21.4,0L4.4,154.3c-5.9,5.9-5.9,15.5,0,21.4l21.4,21.4c5.9,5.9,15.5,5.9,21.4,0L197.2,47.3
				c5.9-5.9,5.9-15.5,0-21.4L175.8,4.4z"/>
		</defs>
		<use xlink:href="#SVGID_1_"  style="overflow:visible;fill:#FFFFFF;"/>
		<clipPath id="SVGID_2_">
			<use xlink:href="#SVGID_1_"  style="overflow:visible;"/>
		</clipPath>
	</g>
	<g>
		<path class="st0" d="M396.8,85.5c4.7,0,7.9,0.8,9.9,2.4c2.3,1.8,3.7,4.9,3.7,8.3c0,2.2-0.6,4.3-1.5,5.8c-0.7,0.9-1.3,1.5-2.9,2.4
			c2.7,0.6,4,1.2,5.3,2.6c1.8,1.8,2.9,4.7,2.9,7.7c0,3.2-1.3,6.3-3.6,8.3c-2.4,2.1-5.6,3.1-10.1,3.1h-11.6c-1.9,0-2.1-0.2-2.1-2.1
			V87.5c0-1.9,0.2-2.1,2.1-2.1H396.8z M396.9,102.4c4.1,0,6.2-1.8,6.2-5.3c0-3.5-2.1-5.2-6-5.2h-2.4v10.5H396.9z M398.1,119.7
			c5.4,0,7.9-1.8,7.9-5.7c0-1.9-0.9-3.5-2.4-4.4c-1.4-0.9-2.7-1.2-6-1.2h-3v11.3H398.1z"/>
		<path class="st0" d="M452.2,123.4c0.7,0.9,0.8,1.1,0.8,1.5c0,0.9-0.5,1.2-2.1,1.2H446c-1.5,0-1.6,0-2.1-0.8
			c-0.1-0.2-0.2-0.3-0.3-0.5l-10.1-15h-1V124c0,1.9-0.2,2.1-2.1,2.1h-3.8c-1.9,0-2.1-0.2-2.1-2.1V87.5c0-1.9,0.2-2.1,2.1-2.1h9.7
			c4.5,0,8.1,1,10.4,2.9c2.5,2.1,4,5.5,4,9.1c0,3.7-1.4,7-3.7,9c-1.6,1.3-3,2.1-5.6,2.6L452.2,123.4z M434.8,104.2
			c5,0,7.7-2.2,7.7-6.2c0-4-2.6-6.1-7.6-6.1h-2.4v12.3H434.8z"/>
		<path class="st0" d="M470.4,124c0,1.9-0.2,2.1-2.1,2.1h-3.8c-1.9,0-2.1-0.2-2.1-2.1V87.5c0-1.9,0.2-2.1,2.1-2.1h3.8
			c1.9,0,2.1,0.2,2.1,2.1V124z"/>
		<path class="st0" d="M482.8,87.6c0-1.9,0.2-2.1,2.1-2.1h9.6c6,0,10.7,1.5,14.6,4.7c4.6,3.7,7.2,9.5,7.2,15.6
			c0,6-2.7,11.8-7.4,15.7c-3.9,3.3-8.3,4.7-14.5,4.7h-9.5c-1.9,0-2.1-0.2-2.1-2.1V87.6z M492.8,119.2c5.1,0,8.3-1,10.8-3.2
			c2.7-2.4,4.4-6.3,4.4-10.2s-1.6-7.7-4.4-10.1c-2.6-2.4-5.7-3.3-10.8-3.3h-2.1v26.9H492.8z"/>
		<path class="st0" d="M549.1,111.2c-1.9,0-2.1-0.2-2.1-2.1v-2.6c0-1.9,0.2-2.1,2.1-2.1h14.4c1.8,0,2.1,0.3,2.1,2.1
			c0,12.2-8,20.6-19.8,20.6c-12.4,0-21.3-8.8-21.3-21c0-12.4,9.1-21.4,21.5-21.4c6.9,0,13.2,3.1,16.6,8.2c0.2,0.3,0.3,0.5,0.3,0.9
			c0,0.7-0.2,0.9-1.4,1.5l-3.3,1.8c-0.8,0.4-1,0.5-1.3,0.5c-0.5,0-0.5,0-1.9-1.9c-1.7-2.1-5.5-3.8-9-3.8c-7.7,0-13.3,6-13.3,14.2
			c0,7.9,5.7,13.8,13.3,13.8c5.8,0,10-3.4,10.7-8.6H549.1z"/>
		<path class="st0" d="M584,101.4h11.9c1.9,0,2.1,0.2,2.1,2.1v2.6c0,1.9-0.2,2.1-2.1,2.1H584v11h12.5c1.9,0,2.1,0.2,2.1,2.1v2.6
			c0,1.9-0.2,2.1-2.1,2.1h-18.3c-1.9,0-2.1-0.2-2.1-2.1V87.6c0-1.9,0.2-2.1,2.1-2.1h18.3c1.9,0,2.1,0.2,2.1,2.1v2.6
			c0,1.9-0.2,2.1-2.1,2.1H584V101.4z"/>
		<path class="st0" d="M632.3,86.7c0.5-1.6,0.5-1.6,2.3-1.6h0.9c1.8,0,1.8,0,2.3,1.6l8.8,26.4l9.2-26c0.6-1.6,0.6-1.6,2.3-1.6h4
			c1.5,0,2.1,0.3,2.1,1.2c0,0.3-0.1,0.7-0.4,1.3L650,125.2c-0.6,1.6-0.6,1.6-2.3,1.6h-2.1c-1.6,0-1.8-0.1-2.1-1.2l-0.2-0.5
			l-8.5-24.9l-8.9,24.9c-0.5,1.6-0.5,1.6-2.3,1.6h-2.1c-1.7,0-1.7,0-2.3-1.6l-13-37.3c-0.2-0.7-0.3-1-0.3-1.3c0-0.9,0.5-1.2,2.1-1.2
			h4c1.6,0,1.8,0.1,2.1,1.2l0.2,0.5l8.5,26L632.3,86.7z"/>
		<path class="st0" d="M677.2,117.5l-3,7.1c-0.7,1.5-0.7,1.5-2.3,1.5h-4c-1.5,0-2.1-0.3-2.1-1.2c0-0.4,0-0.4,0.4-1.3L682,86.1
			c0.1-0.1,0.2-0.3,0.2-0.5c0.4-1,0.5-1,2.1-1h2.6c1.6,0,1.8,0.1,2.1,1l0.2,0.5l15.5,37.4c0.2,0.6,0.4,1,0.4,1.3
			c0,0.9-0.5,1.2-2.1,1.2H699c-1.7,0-1.7,0-2.3-1.6l-2.9-7H677.2z M685.6,96.5l-5.9,14.6h11.6L685.6,96.5z"/>
		<path class="st0" d="M708.9,92.3c-1.9,0-2.1-0.2-2.1-2.1v-2.6c0-1.9,0.2-2.1,2.1-2.1h22c1.9,0,2.1,0.2,2.1,2.1v2.6
			c0,1.9-0.2,2.1-2.1,2.1h-7.1V124c0,1.9-0.2,2.1-2.1,2.1H718c-1.9,0-2.1-0.2-2.1-2.1V92.3H708.9z"/>
		<path class="st0" d="M749,101.4H761c1.9,0,2.1,0.2,2.1,2.1v2.6c0,1.9-0.2,2.1-2.1,2.1H749v11h12.5c1.9,0,2.1,0.2,2.1,2.1v2.6
			c0,1.9-0.2,2.1-2.1,2.1h-18.3c-1.9,0-2.1-0.2-2.1-2.1V87.6c0-1.9,0.2-2.1,2.1-2.1h18.3c1.9,0,2.1,0.2,2.1,2.1v2.6
			c0,1.9-0.2,2.1-2.1,2.1H749V101.4z"/>
		<path class="st0" d="M802,123.4c0.7,0.9,0.8,1.1,0.8,1.5c0,0.9-0.5,1.2-2.1,1.2h-4.9c-1.5,0-1.6,0-2.1-0.8
			c-0.1-0.2-0.2-0.3-0.3-0.5l-10.1-15h-1V124c0,1.9-0.2,2.1-2.1,2.1h-3.8c-1.9,0-2.1-0.2-2.1-2.1V87.5c0-1.9,0.2-2.1,2.1-2.1h9.7
			c4.5,0,8.1,1,10.4,2.9c2.5,2.1,4,5.5,4,9.1c0,3.7-1.4,7-3.7,9c-1.6,1.3-3,2.1-5.6,2.6L802,123.4z M784.6,104.2
			c5,0,7.7-2.2,7.7-6.2c0-4-2.6-6.1-7.6-6.1h-2.4v12.3H784.6z"/>
		<path class="st0" d="M394.7,162.3h10.7c1.9,0,2.1,0.2,2.1,2.1v2.6c0,1.9-0.2,2.1-2.1,2.1h-10.7v15.8c0,1.9-0.2,2.1-2.1,2.1h-3.8
			c-1.9,0-2.1-0.2-2.1-2.1v-36.4c0-1.9,0.2-2.1,2.1-2.1h17.4c1.9,0,2.1,0.2,2.1,2.1v2.6c0,1.9-0.2,2.1-2.1,2.1h-11.5V162.3z"/>
		<path class="st0" d="M426.2,184.9c0,1.9-0.2,2.1-2.1,2.1h-3.8c-1.9,0-2.1-0.2-2.1-2.1v-36.5c0-1.9,0.2-2.1,2.1-2.1h3.8
			c1.9,0,2.1,0.2,2.1,2.1V184.9z"/>
		<path class="st0" d="M468.8,148.5c0-1.9,0.2-2.1,2.1-2.1h3.8c1.9,0,2.1,0.2,2.1,2.1v37.3c0,1.9-0.2,2.1-2.1,2.1h-2
			c-1.4,0-1.4,0-2.3-1l-23.8-27.2v25.4c0,1.9-0.2,2.1-2.1,2.1h-3.8c-1.9,0-2.1-0.2-2.1-2.1v-37.4c0-1.9,0.2-2.1,2.1-2.1h2
			c1.4,0,1.4,0,2.3,1l23.8,27.2V148.5z"/>
		<path class="st0" d="M496.5,178.4l-3,7.1c-0.7,1.5-0.7,1.5-2.3,1.5h-4c-1.5,0-2.1-0.3-2.1-1.2c0-0.4,0-0.4,0.4-1.3l15.8-37.5
			c0.1-0.1,0.2-0.3,0.2-0.5c0.4-1,0.5-1,2.1-1h2.6c1.6,0,1.8,0.1,2.1,1l0.2,0.5l15.5,37.4c0.2,0.6,0.4,1,0.4,1.3
			c0,0.9-0.5,1.2-2.1,1.2h-4.1c-1.7,0-1.7,0-2.3-1.6l-2.9-7H496.5z M504.9,157.4L499,172h11.6L504.9,157.4z"/>
		<path class="st0" d="M563.1,148.5c0-1.9,0.2-2.1,2.1-2.1h3.8c1.9,0,2.1,0.2,2.1,2.1v37.3c0,1.9-0.2,2.1-2.1,2.1h-2
			c-1.4,0-1.4,0-2.3-1l-23.8-27.2v25.4c0,1.9-0.2,2.1-2.1,2.1h-3.8c-1.9,0-2.1-0.2-2.1-2.1v-37.4c0-1.9,0.2-2.1,2.1-2.1h2
			c1.4,0,1.4,0,2.3,1l23.8,27.2V148.5z"/>
		<path class="st0" d="M612.8,153.8c0,1.6-0.2,2.1-0.9,2.1c-0.4,0-0.4,0-2.3-1.3c-1.8-1.2-4.1-1.9-6.5-1.9c-7.8,0-13.6,6-13.6,14.1
			c0,7.9,5.8,13.8,13.3,13.8c3.2,0,5.6-0.8,8.3-2.7c0.2-0.2,0.5-0.3,0.7-0.3c0.7,0,0.9,0.5,0.9,2.1v4.1c0,1.3-0.1,1.5-0.4,1.8
			c-0.1,0.1-0.2,0.2-0.5,0.3c-3,1.3-5.9,1.9-9,1.9c-12,0-21.4-9.3-21.4-21c0-11.9,9.6-21.4,21.5-21.4c3.2,0,8.1,1.2,9.4,2.4
			c0.4,0.3,0.4,0.5,0.4,1.8V153.8z"/>
		<path class="st0" d="M631.2,162.3h11.9c1.9,0,2.1,0.2,2.1,2.1v2.6c0,1.9-0.2,2.1-2.1,2.1h-11.9v11h12.5c1.9,0,2.1,0.2,2.1,2.1v2.6
			c0,1.9-0.2,2.1-2.1,2.1h-18.3c-1.9,0-2.1-0.2-2.1-2.1v-36.4c0-1.9,0.2-2.1,2.1-2.1h18.3c1.9,0,2.1,0.2,2.1,2.1v2.6
			c0,1.9-0.2,2.1-2.1,2.1h-12.5V162.3z"/>
		<path class="st0" d="M409.3,233.1c-1.9,0-2.1-0.2-2.1-2.1v-2.6c0-1.9,0.2-2.1,2.1-2.1h14.4c1.8,0,2.1,0.3,2.1,2.1
			c0,12.2-8,20.6-19.8,20.6c-12.4,0-21.3-8.8-21.3-21c0-12.4,9.1-21.4,21.5-21.4c6.9,0,13.2,3.1,16.6,8.2c0.2,0.3,0.3,0.5,0.3,0.9
			c0,0.7-0.2,0.9-1.4,1.5l-3.3,1.8c-0.8,0.4-1,0.5-1.3,0.5c-0.5,0-0.5,0-1.9-1.9c-1.7-2.1-5.5-3.8-9-3.8c-7.7,0-13.3,6-13.3,14.2
			c0,7.9,5.7,13.8,13.3,13.8c5.8,0,10-3.4,10.7-8.6H409.3z"/>
		<path class="st0" d="M463.9,245.2c0.7,0.9,0.8,1.1,0.8,1.5c0,0.9-0.5,1.2-2.1,1.2h-4.9c-1.5,0-1.6,0-2.1-0.8
			c-0.1-0.2-0.2-0.3-0.3-0.5l-10.1-15h-1v14.3c0,1.9-0.2,2.1-2.1,2.1h-3.8c-1.9,0-2.1-0.2-2.1-2.1v-36.5c0-1.9,0.2-2.1,2.1-2.1h9.7
			c4.5,0,8.1,1,10.4,2.9c2.5,2.1,4,5.5,4,9.1c0,3.7-1.4,7-3.7,9c-1.6,1.3-3,2.1-5.6,2.6L463.9,245.2z M446.5,226
			c5,0,7.7-2.2,7.7-6.2c0-4-2.6-6.1-7.6-6.1h-2.4V226H446.5z"/>
		<path class="st0" d="M514.9,227.6c0,12-9.6,21.2-21.9,21.2c-12.2,0-21.5-9.3-21.5-21.5c0-11.6,9.7-21,21.8-21
			C505.4,206.4,514.9,215.7,514.9,227.6z M479.6,227.8c0,7.6,6.2,13.8,13.5,13.8c7.5,0,13.6-6.3,13.6-14c0-7.7-6.1-13.9-13.5-13.9
			C485.6,213.6,479.6,219.8,479.6,227.8z"/>
		<path class="st0" d="M533.1,230.6c0,4.1,0.2,5.5,1.3,7.2c1.3,2.3,4.1,3.8,7.1,3.8c3,0,5.8-1.5,7.1-3.8c1-1.8,1.3-3.1,1.3-7.2
			v-21.2c0-1.9,0.2-2.1,2.1-2.1h3.8c1.9,0,2.1,0.2,2.1,2.1v22.8c0,4.8-0.9,8.1-3,10.8c-2.8,3.7-7.8,5.8-13.3,5.8
			c-5.5,0-10.5-2.2-13.3-5.8c-2.1-2.7-3-6.1-3-10.8v-22.8c0-1.9,0.2-2.1,2.1-2.1h3.8c1.9,0,2.1,0.2,2.1,2.1V230.6z"/>
		<path class="st0" d="M578.2,245.9c0,1.9-0.2,2.1-2.1,2.1h-3.8c-1.9,0-2.1-0.2-2.1-2.1v-36.4c0-1.9,0.2-2.1,2.1-2.1h9.8
			c5.3,0,8.2,0.9,10.7,3.1c2.6,2.4,4.1,5.9,4.1,9.8c0,3.5-1.2,6.8-3.3,9.1c-2.3,2.4-5.6,3.6-10.4,3.6h-5.1V245.9z M581.4,226
			c4.9,0,7.4-1.9,7.4-5.8c0-1.9-0.8-3.7-2.1-4.7c-1.2-0.9-2.9-1.3-5.8-1.3h-2.7V226H581.4z"/>
	</g>
	<rect x="384.7" y="319.9" class="st0" width="125.5" height="8.6"/>
</g>
</svg>
